# xmcd
#
# Track frame offsets:
#	150
#	14030
#	28185
#	42141
#	58137
#	72923
#	91626
#	104838
#	119819
#	136303
#	152121
#	170213
#	186609
#	206032
#	221159
#	234320
#	247517
#	263021
#	278511
#
# Disc length: 4350 seconds
#
# Revision: 0
# Processed by: cddbd v1.5.2PL0 Copyright (c) Steve Scherf et al.
# Submitted via: EZCDAudioConverter 4.0.5.1
#
DISCID=2010fc13
DTITLE=Various Artist - NU COUNTRY TRAXX VOLUME 222 US
DYEAR=1900
DGENRE=
TTITLE0=I'll Name The Dogs - I'll Name The Dogs - Blake Shelton
TTITLE1=Heart Break - Heart Break - Lady Antebellum
TTITLE2=Written In The Sand - Written In The Sand - Old Dominion
TTITLE3=Take Back Home - Take Back Home - Chris Lane ft. Tori Kelly
TTITLE4=Still A Soldier - Still A Soldier - Trace Adkins
TTITLE5=Tennessee Mountain Top - Tennessee Mountain Top - Kid Rock
TTITLE6=Rollin - Rollin' - Jackson Michelson
TTITLE7=Vinyl - Vinyl - William Michael Morgan
TTITLE8=Bloodline - Bloodline - Tyminski
TTITLE9=A Little Dive Bar In Dahlonega - A Little Dive Bar In Dahlonega - Ashl
TTITLE9=ey McBryde
TTITLE10=Five More Minutes - Five More Minutes - Scotty McCreery
TTITLE11=Wild West - Wild West - Runaway June
TTITLE12=Life In A River Town - Life In A River Town - Chris Webb
TTITLE13=Danny Ray - Danny Ray - EmiSunshine
TTITLE14=Kissing Sadie - Kissing Sadie - Chris Henderson
TTITLE15=Bump Bump Bump - Bump Bump Bump - Re Mettei
TTITLE16=The Journey - The Journey - Paul Brandt
TTITLE17=What You Need - What You Need - Dani Strong
TTITLE18=Paradise Found - Paradise Found - Shawn Austin
EXTD=
EXTT0=
EXTT1=
EXTT2=
EXTT3=
EXTT4=
EXTT5=
EXTT6=
EXTT7=
EXTT8=
EXTT9=
EXTT10=
EXTT11=
EXTT12=
EXTT13=
EXTT14=
EXTT15=
EXTT16=
EXTT17=
EXTT18=
PLAYORDER=
